<svg width="411" height="237" viewBox="0 0 411 237" fill="none" xmlns="http://www.w3.org/2000/svg">
<rect x="31" y="18" width="216" height="59" rx="4" fill="#4C4C66"/>
<path fill-rule="evenodd" clip-rule="evenodd" d="M113.68 77H243C245.209 77 247 75.2091 247 73V22C247 19.7909 245.209 18 243 18H215.834L113.68 77Z" fill="#46465E"/>
<g filter="url(#filter0_d)">
<rect x="180" y="54" width="216" height="59" rx="4" fill="#4C4C66"/>
</g>
<path fill-rule="evenodd" clip-rule="evenodd" d="M262.68 113H392C394.209 113 396 111.209 396 109V58C396 55.7909 394.209 54 392 54H364.834L262.68 113Z" fill="#46465E"/>
<rect x="60" y="146" width="216" height="59" rx="4" fill="#4C4C66"/>
<path fill-rule="evenodd" clip-rule="evenodd" d="M142.68 205H272C274.209 205 276 203.209 276 201V150C276 147.791 274.209 146 272 146H244.834L142.68 205Z" fill="#46465E"/>
<rect x="18" y="18" width="5" height="5" rx="1" fill="white" fill-opacity="0.15"/>
<rect x="18" y="27" width="5" height="5" rx="1" fill="white" fill-opacity="0.15"/>
<rect x="18" y="36" width="5" height="5" rx="1" fill="white" fill-opacity="0.15"/>
<rect x="18" y="45" width="5" height="5" rx="1" fill="white" fill-opacity="0.15"/>
<rect x="9" y="18" width="5" height="5" rx="1" fill="white" fill-opacity="0.15"/>
<rect x="9" y="27" width="5" height="5" rx="1" fill="white" fill-opacity="0.15"/>
<rect x="9" y="36" width="5" height="5" rx="1" fill="white" fill-opacity="0.15"/>
<rect x="9" y="45" width="5" height="5" rx="1" fill="white" fill-opacity="0.15"/>
<rect y="18" width="5" height="5" rx="1" fill="white" fill-opacity="0.15"/>
<rect y="27" width="5" height="5" rx="1" fill="white" fill-opacity="0.15"/>
<rect y="36" width="5" height="5" rx="1" fill="white" fill-opacity="0.15"/>
<rect y="45" width="5" height="5" rx="1" fill="white" fill-opacity="0.15"/>
<rect x="18" y="9" width="5" height="5" rx="1" fill="white" fill-opacity="0.15"/>
<rect x="9" y="9" width="5" height="5" rx="1" fill="white" fill-opacity="0.15"/>
<rect y="9" width="5" height="5" rx="1" fill="white" fill-opacity="0.15"/>
<rect x="18" width="5" height="5" rx="1" fill="white" fill-opacity="0.15"/>
<rect x="9" width="5" height="5" rx="1" fill="white" fill-opacity="0.15"/>
<rect width="5" height="5" rx="1" fill="white" fill-opacity="0.15"/>
<rect x="27" y="9" width="5" height="5" rx="1" fill="white" fill-opacity="0.15"/>
<rect x="27" width="5" height="5" rx="1" fill="white" fill-opacity="0.15"/>
<rect x="36" y="9" width="5" height="5" rx="1" fill="white" fill-opacity="0.15"/>
<rect x="36" width="5" height="5" rx="1" fill="white" fill-opacity="0.15"/>
<rect x="45" y="9" width="5" height="5" rx="1" fill="white" fill-opacity="0.15"/>
<rect x="45" width="5" height="5" rx="1" fill="white" fill-opacity="0.15"/>
<rect x="54" y="9" width="5" height="5" rx="1" fill="white" fill-opacity="0.15"/>
<rect x="54" width="5" height="5" rx="1" fill="white" fill-opacity="0.15"/>
<rect x="255" y="214" width="5" height="5" rx="1" fill="white" fill-opacity="0.15"/>
<rect x="246" y="214" width="5" height="5" rx="1" fill="white" fill-opacity="0.15"/>
<rect x="237" y="214" width="5" height="5" rx="1" fill="white" fill-opacity="0.15"/>
<rect x="273" y="214" width="5" height="5" rx="1" fill="white" fill-opacity="0.15"/>
<rect x="282" y="214" width="5" height="5" rx="1" fill="white" fill-opacity="0.15"/>
<rect x="264" y="223" width="5" height="5" rx="1" fill="white" fill-opacity="0.15"/>
<rect x="255" y="223" width="5" height="5" rx="1" fill="white" fill-opacity="0.15"/>
<rect x="246" y="223" width="5" height="5" rx="1" fill="white" fill-opacity="0.15"/>
<rect x="237" y="223" width="5" height="5" rx="1" fill="white" fill-opacity="0.15"/>
<rect x="273" y="223" width="5" height="5" rx="1" fill="white" fill-opacity="0.15"/>
<rect x="282" y="223" width="5" height="5" rx="1" fill="white" fill-opacity="0.15"/>
<rect x="264" y="232" width="5" height="5" rx="1" fill="white" fill-opacity="0.15"/>
<rect x="255" y="232" width="5" height="5" rx="1" fill="white" fill-opacity="0.15"/>
<rect x="246" y="232" width="5" height="5" rx="1" fill="white" fill-opacity="0.15"/>
<rect x="237" y="232" width="5" height="5" rx="1" fill="white" fill-opacity="0.15"/>
<rect x="273" y="232" width="5" height="5" rx="1" fill="white" fill-opacity="0.15"/>
<rect x="282" y="232" width="5" height="5" rx="1" fill="white" fill-opacity="0.15"/>
<rect x="282" y="205" width="5" height="5" rx="1" fill="white" fill-opacity="0.15"/>
<rect x="282" y="196" width="5" height="5" rx="1" fill="white" fill-opacity="0.15"/>
<rect x="282" y="187" width="5" height="5" rx="1" fill="white" fill-opacity="0.15"/>
<rect x="291" y="214" width="5" height="5" rx="1" fill="white" fill-opacity="0.15"/>
<rect x="291" y="223" width="5" height="5" rx="1" fill="white" fill-opacity="0.15"/>
<rect x="291" y="232" width="5" height="5" rx="1" fill="white" fill-opacity="0.15"/>
<rect x="291" y="205" width="5" height="5" rx="1" fill="white" fill-opacity="0.15"/>
<rect x="291" y="196" width="5" height="5" rx="1" fill="white" fill-opacity="0.15"/>
<rect x="291" y="187" width="5" height="5" rx="1" fill="white" fill-opacity="0.15"/>
<rect x="77" y="160" width="32" height="32" rx="4" fill="#FE672C"/>
<path fill-rule="evenodd" clip-rule="evenodd" d="M77 186.956V188C77 190.209 78.7909 192 81 192H105C107.209 192 109 190.209 109 188V164C109 161.791 107.209 160 105 160H102.384C100.857 179.637 85.4301 186.118 77 186.956Z" fill="#CD5323"/>
<circle cx="85" cy="177" r="3" fill="#CD5323"/>
<circle cx="86.5" cy="165.5" r="1.5" fill="#CD5323"/>
<rect x="197" y="68" width="32" height="32" rx="4" fill="#F8126A"/>
<path fill-rule="evenodd" clip-rule="evenodd" d="M197.933 98.5675C198.666 99.4432 199.768 100 201 100H225C227.209 100 229 98.2092 229 96V72C229 70.7682 228.443 69.6664 227.567 68.9326L197.933 98.5675Z" fill="#A42C5A"/>
<rect x="202" y="73" width="5" height="5" rx="1" fill="#A42C5A"/>
<rect x="207" y="80" width="3" height="3" rx="1" fill="#A42C5A"/>
<rect x="201" y="88" width="2" height="2" rx="1" fill="#A42C5A"/>
<rect x="48" y="32" width="32" height="32" rx="4" fill="#45AFE3"/>
<path fill-rule="evenodd" clip-rule="evenodd" d="M68.7789 32H76C78.2091 32 80 33.7909 80 36V48.8186C79.3514 48.9378 78.683 49 78 49C71.9249 49 67 44.0751 67 38C67 35.7864 67.6538 33.7256 68.7789 32Z" fill="#4896BD"/>
<circle cx="55" cy="57" r="3" fill="#4896BD"/>
<circle cx="65" cy="53" r="2" fill="#4896BD"/>
<circle cx="58" cy="42" r="1" fill="#4896BD"/>
<circle cx="130" cy="176" r="4" fill="#F8126A"/>
<circle cx="143" cy="176" r="3" fill="#FE672C"/>
<circle cx="154" cy="176" r="2" fill="#45AFE3"/>
<circle cx="252" cy="83" r="4" fill="#F8126A"/>
<circle cx="265" cy="83" r="3" fill="#FE672C"/>
<circle cx="276" cy="83" r="2" fill="#45AFE3"/>
<circle cx="102" cy="48" r="4" fill="#F8126A"/>
<circle cx="115" cy="48" r="3" fill="#FE672C"/>
<circle cx="126" cy="48" r="2" fill="#45AFE3"/>
<circle cx="61" cy="146" r="7" fill="#FE672C" stroke="#2B2D48" stroke-width="2"/>
<circle cx="180" cy="113" r="7" fill="#F8126A" stroke="#2B2D48" stroke-width="2"/>
<path d="M61 140V117C61 114.791 62.7909 113 65 113H180" stroke="url(#paint0_linear)" stroke-width="2"/>
<defs>
<filter id="filter0_d" x="165" y="43" width="246" height="89" filterUnits="userSpaceOnUse" color-interpolation-filters="sRGB">
<feFlood flood-opacity="0" result="BackgroundImageFix"/>
<feColorMatrix in="SourceAlpha" type="matrix" values="0 0 0 0 0 0 0 0 0 0 0 0 0 0 0 0 0 0 127 0"/>
<feOffset dy="4"/>
<feGaussianBlur stdDeviation="7.5"/>
<feColorMatrix type="matrix" values="0 0 0 0 0.0487153 0 0 0 0 0.0675625 0 0 0 0 0.0958333 0 0 0 0.25 0"/>
<feBlend mode="normal" in2="BackgroundImageFix" result="effect1_dropShadow"/>
<feBlend mode="normal" in="SourceGraphic" in2="effect1_dropShadow" result="shape"/>
</filter>
<linearGradient id="paint0_linear" x1="167" y1="113" x2="61" y2="141.5" gradientUnits="userSpaceOnUse">
<stop stop-color="#F8126A"/>
<stop offset="1" stop-color="#FE672C"/>
</linearGradient>
</defs>
</svg>
