<svg width="18" height="18" viewBox="0 0 18 18" fill="none" xmlns="http://www.w3.org/2000/svg">
<path d="M4.02901 18H0.297255V5.98259H4.02901V18ZM2.16112 4.3433C0.968087 4.3433 0 3.35491 0 2.16161C0 0.968304 0.968087 0 2.16112 0C3.35416 0 4.32225 0.968304 4.32225 2.16161C4.32225 3.35491 3.35416 4.3433 2.16112 4.3433ZM17.996 18H14.2723V12.15C14.2723 10.7558 14.2441 8.96786 12.3321 8.96786C10.3919 8.96786 10.0946 10.4826 10.0946 12.0496V18H6.36688V5.98259H9.94599V7.62187H9.99821C10.4963 6.67768 11.7135 5.68125 13.5291 5.68125C17.3051 5.68125 18 8.1683 18 11.3987V18H17.996Z" fill="#6B6B89"/>
</svg>
