<svg width="137" height="45" viewBox="0 0 137 45" fill="none" xmlns="http://www.w3.org/2000/svg">
<path d="M2.256 22.2H5.376V39H2.256V22.2ZM25.1981 22.2V39H22.6301L13.3661 27.624V39H10.2701V22.2H12.8381L22.1021 33.576V22.2H25.1981ZM37.8258 39.24C36.1298 39.24 34.5938 38.872 33.2178 38.136C31.8578 37.384 30.7858 36.352 30.0018 35.04C29.2338 33.728 28.8498 32.248 28.8498 30.6C28.8498 28.952 29.2418 27.472 30.0258 26.16C30.8098 24.848 31.8818 23.824 33.2418 23.088C34.6178 22.336 36.1538 21.96 37.8498 21.96C39.2258 21.96 40.4818 22.2 41.6178 22.68C42.7538 23.16 43.7138 23.856 44.4978 24.768L42.4818 26.664C41.2658 25.352 39.7698 24.696 37.9938 24.696C36.8418 24.696 35.8098 24.952 34.8978 25.464C33.9858 25.96 33.2738 26.656 32.7618 27.552C32.2498 28.448 31.9938 29.464 31.9938 30.6C31.9938 31.736 32.2498 32.752 32.7618 33.648C33.2738 34.544 33.9858 35.248 34.8978 35.76C35.8098 36.256 36.8418 36.504 37.9938 36.504C39.7698 36.504 41.2658 35.84 42.4818 34.512L44.4978 36.432C43.7138 37.344 42.7458 38.04 41.5938 38.52C40.4578 39 39.2018 39.24 37.8258 39.24ZM83.3184 22.2V39H80.7504L71.4864 27.624V39H68.3904V22.2H70.9584L80.2224 33.576V22.2H83.3184ZM88.1701 22.2H91.2901V39H88.1701V22.2ZM103.408 39.24C101.088 39.24 99.2801 38.592 97.9841 37.296C96.6881 35.984 96.0401 34.112 96.0401 31.68V22.2H99.1601V31.56C99.1601 34.856 100.584 36.504 103.432 36.504C106.264 36.504 107.68 34.856 107.68 31.56V22.2H110.752V31.68C110.752 34.112 110.104 35.984 108.808 37.296C107.528 38.592 105.728 39.24 103.408 39.24ZM130.904 39L130.88 27.864L125.36 37.08H123.968L118.448 28.008V39H115.472V22.2H118.04L124.712 33.336L131.264 22.2H133.832L133.856 39H130.904Z" fill="#DADADA"/>
<path d="M55.6853 39.24C53.9732 39.24 52.4292 38.872 51.0532 38.136C49.6772 37.384 48.5972 36.352 47.8132 35.04C47.0292 33.712 46.6372 32.232 46.6372 30.6C46.6372 28.968 47.0292 27.496 47.8132 26.184C48.5972 24.856 49.6772 23.824 51.0532 23.088C52.4292 22.336 53.9732 21.96 55.6853 21.96C57.3972 21.96 58.9412 22.336 60.3172 23.088C61.6933 23.824 62.7733 24.848 63.5572 26.16C64.3412 27.472 64.7333 28.952 64.7333 30.6C64.7333 32.248 64.3412 33.728 63.5572 35.04C62.7733 36.352 61.6933 37.384 60.3172 38.136C58.9412 38.872 57.3972 39.24 55.6853 39.24ZM55.6853 36.504C56.8052 36.504 57.8133 36.256 58.7093 35.76C59.6053 35.248 60.3093 34.544 60.8213 33.648C61.3333 32.736 61.5893 31.72 61.5893 30.6C61.5893 29.48 61.3333 28.472 60.8213 27.576C60.3093 26.664 59.6053 25.96 58.7093 25.464C57.8133 24.952 56.8052 24.696 55.6853 24.696C54.5652 24.696 53.5572 24.952 52.6612 25.464C51.7652 25.96 51.0612 26.664 50.5492 27.576C50.0372 28.472 49.7812 29.48 49.7812 30.6C49.7812 31.72 50.0372 32.736 50.5492 33.648C51.0612 34.544 51.7652 35.248 52.6612 35.76C53.5572 36.256 54.5652 36.504 55.6853 36.504Z" fill="#F8126A"/>
<circle cx="53.5" cy="11.5" r="4.5" fill="#F8126A"/>
<circle cx="68.5" cy="2.5" r="2.5" fill="#F8126A"/>
</svg>
